<svg xmlns="http://www.w3.org/2000/svg" xmlns:xlink="http://www.w3.org/1999/xlink" width="500" zoomAndPan="magnify" viewBox="0 0 375 374.999991" height="500" preserveAspectRatio="xMidYMid meet" version="1.0"><defs><clipPath id="5e793e587a"><path d="M 25.035156 24 L 148 24 L 148 352 L 25.035156 352 Z M 25.035156 24 " clip-rule="nonzero"/></clipPath><clipPath id="d6a8be2648"><path d="M 174 24 L 352.035156 24 L 352.035156 352 L 174 352 Z M 174 24 " clip-rule="nonzero"/></clipPath><clipPath id="e09a8f8888"><path d="M 216.511719 27.828125 L 237.996094 27.828125 L 237.996094 49.300781 L 216.511719 49.300781 Z M 216.511719 27.828125 " clip-rule="nonzero"/></clipPath><clipPath id="9f46fc1fa4"><path d="M 214.53125 40 L 221 40 L 221 47 L 214.53125 47 Z M 214.53125 40 " clip-rule="nonzero"/></clipPath><clipPath id="2bcd2ba3a7"><path d="M 229.84375 26.0625 L 239.28125 26.0625 L 239.28125 35.492188 L 229.84375 35.492188 Z M 229.84375 26.0625 " clip-rule="nonzero"/></clipPath><clipPath id="84c202eaa4"><path d="M 146.929688 27.828125 L 168.414062 27.828125 L 168.414062 49.300781 L 146.929688 49.300781 Z M 146.929688 27.828125 " clip-rule="nonzero"/></clipPath><clipPath id="a51c2e4660"><path d="M 164 40 L 170.398438 40 L 170.398438 47 L 164 47 Z M 164 40 " clip-rule="nonzero"/></clipPath><clipPath id="b348b67541"><path d="M 146.011719 26.0625 L 155.082031 26.0625 L 155.082031 35.492188 L 146.011719 35.492188 Z M 146.011719 26.0625 " clip-rule="nonzero"/></clipPath></defs><g clip-path="url(#5e793e587a)"><path fill="#000000" d="M 77.867188 350.550781 L 26.066406 350.550781 L 26.066406 25.945312 L 147.15625 25.945312 C 147.15625 25.585938 147.15625 25.273438 147.207031 24.914062 L 25.035156 24.914062 L 25.035156 351.632812 L 78.226562 351.632812 C 78.125 351.273438 77.96875 350.910156 77.867188 350.550781 Z M 77.867188 350.550781 " fill-opacity="1" fill-rule="nonzero"/></g><g clip-path="url(#d6a8be2648)"><path fill="#000000" d="M 239.613281 24.914062 C 239.664062 25.015625 239.714844 25.121094 239.714844 25.222656 C 239.769531 25.429688 239.871094 25.6875 239.921875 25.945312 L 350.953125 25.945312 L 350.953125 350.601562 L 174.449219 350.601562 C 174.449219 350.960938 174.5 351.273438 174.5 351.632812 L 352.035156 351.632812 L 352.035156 24.914062 Z M 239.613281 24.914062 " fill-opacity="1" fill-rule="nonzero"/></g><path fill="#000000" d="M 149.996094 350.550781 C 128.582031 350.550781 125.746094 353.386719 125.746094 374.777344 C 125.746094 353.386719 122.910156 350.550781 101.496094 350.550781 C 122.910156 350.550781 125.746094 347.714844 125.746094 326.320312 C 125.746094 347.714844 128.582031 350.550781 149.996094 350.550781 Z M 149.996094 350.550781 " fill-opacity="1" fill-rule="nonzero"/><path fill="#000000" d="M 121.929688 365.242188 C 115.996094 365.242188 115.167969 366.015625 115.167969 371.996094 C 115.167969 366.066406 114.394531 365.242188 108.410156 365.242188 C 114.34375 365.242188 115.167969 364.46875 115.167969 358.488281 C 115.222656 364.417969 115.996094 365.242188 121.929688 365.242188 Z M 121.929688 365.242188 " fill-opacity="1" fill-rule="nonzero"/><path fill="#000000" d="M 156.910156 332.664062 C 144.679688 332.664062 143.03125 334.3125 143.03125 346.527344 C 143.03125 334.3125 141.378906 332.664062 129.152344 332.664062 C 141.378906 332.664062 143.03125 331.011719 143.03125 318.796875 C 143.03125 331.0625 144.628906 332.664062 156.910156 332.664062 Z M 156.910156 332.664062 " fill-opacity="1" fill-rule="nonzero"/><path fill="#000000" d="M 218.511719 24.914062 C 193.902344 24.914062 193.796875 24.964844 193.796875 49.605469 C 193.796875 25.015625 193.746094 24.914062 169.085938 24.914062 C 193.695312 24.914062 193.796875 24.863281 193.796875 0.222656 C 193.847656 24.8125 193.902344 24.914062 218.511719 24.914062 Z M 218.511719 24.914062 " fill-opacity="1" fill-rule="nonzero"/><g clip-path="url(#e09a8f8888)"><path fill="#100f0d" d="M 227.242188 27.851562 C 226.960938 38.070312 226.734375 38.296875 216.527344 38.574219 C 226.734375 38.855469 226.960938 39.082031 227.242188 49.300781 C 227.519531 39.082031 227.746094 38.855469 237.953125 38.574219 C 227.746094 38.296875 227.519531 38.070312 227.242188 27.851562 " fill-opacity="1" fill-rule="nonzero"/></g><g clip-path="url(#9f46fc1fa4)"><path fill="#100f0d" d="M 217.621094 40.386719 C 217.539062 43.332031 217.472656 43.398438 214.53125 43.480469 C 217.472656 43.558594 217.539062 43.625 217.621094 46.570312 C 217.699219 43.625 217.765625 43.558594 220.710938 43.480469 C 217.765625 43.398438 217.699219 43.332031 217.621094 40.386719 " fill-opacity="1" fill-rule="nonzero"/></g><g clip-path="url(#2bcd2ba3a7)"><path fill="#100f0d" d="M 234.585938 35.460938 C 234.710938 30.984375 234.808594 30.882812 239.28125 30.761719 C 234.808594 30.640625 234.710938 30.539062 234.585938 26.0625 C 234.464844 30.539062 234.367188 30.640625 229.894531 30.761719 C 234.367188 30.882812 234.464844 30.984375 234.585938 35.460938 " fill-opacity="1" fill-rule="nonzero"/></g><g clip-path="url(#84c202eaa4)"><path fill="#100f0d" d="M 157.6875 27.851562 C 157.964844 38.070312 158.191406 38.296875 168.398438 38.574219 C 158.191406 38.855469 157.964844 39.082031 157.6875 49.300781 C 157.40625 39.082031 157.179688 38.855469 146.972656 38.574219 C 157.179688 38.296875 157.40625 38.070312 157.6875 27.851562 " fill-opacity="1" fill-rule="nonzero"/></g><g clip-path="url(#a51c2e4660)"><path fill="#100f0d" d="M 167.308594 40.386719 C 167.386719 43.332031 167.453125 43.398438 170.398438 43.480469 C 167.453125 43.558594 167.386719 43.625 167.308594 46.570312 C 167.226562 43.625 167.160156 43.558594 164.21875 43.480469 C 167.160156 43.398438 167.226562 43.332031 167.308594 40.386719 " fill-opacity="1" fill-rule="nonzero"/></g><g clip-path="url(#b348b67541)"><path fill="#100f0d" d="M 150.339844 35.460938 C 150.21875 30.984375 150.117188 30.882812 145.644531 30.761719 C 150.117188 30.640625 150.21875 30.539062 150.339844 26.0625 C 150.460938 30.539062 150.5625 30.640625 155.035156 30.761719 C 150.5625 30.882812 150.460938 30.984375 150.339844 35.460938 " fill-opacity="1" fill-rule="nonzero"/></g></svg>